<svg width="35" height="35" viewBox="0 0 35 35" fill="none" xmlns="http://www.w3.org/2000/svg">
<g clip-path="url(#clip0)">
<path d="M15.4133 0C6.91462 0 0 6.91462 0 15.4133C0 23.9124 6.91462 30.8265 15.4133 30.8265C23.9124 30.8265 30.8265 23.9124 30.8265 15.4133C30.8265 6.91462 23.9124 0 15.4133 0ZM15.4133 27.9811C8.48347 27.9811 2.84553 22.3431 2.84553 15.4133C2.84553 8.48354 8.48347 2.84553 15.4133 2.84553C22.3431 2.84553 27.981 8.48347 27.981 15.4133C27.981 22.3431 22.3431 27.9811 15.4133 27.9811Z" fill="#606365"/>
<path d="M34.583 32.5713L26.4258 24.4141C25.8699 23.8583 24.9698 23.8583 24.4139 24.4141C23.8581 24.9695 23.8581 25.8706 24.4139 26.4259L32.5711 34.5831C32.849 34.861 33.2128 35 33.577 35C33.9408 35 34.305 34.861 34.583 34.5831C35.1388 34.0278 35.1388 33.1267 34.583 32.5713Z" fill="#606365"/>
</g>
<defs>
<clipPath id="clip0">
<rect width="35" height="35" fill="white"/>
</clipPath>
</defs>
</svg>
