<svg width="35" height="35" viewBox="0 0 35 35" fill="none" xmlns="http://www.w3.org/2000/svg">
<g clip-path="url(#clip0)">
<path d="M24.9448 9.08898C24.7066 8.69511 24.2353 8.50792 23.7917 8.63156C23.3485 8.75519 23.0416 9.1592 23.0416 9.6193C23.0416 10.8709 22.0235 11.8888 20.7722 11.8888C19.5209 11.8888 18.5027 10.8709 18.5027 9.6193V1.02551C18.5027 0.61081 18.2528 0.23697 17.8696 0.0783544C17.4864 -0.0805278 17.0455 0.00705762 16.7523 0.300522C16.637 0.415612 13.9029 3.16601 11.1327 7.32125C9.49902 9.7715 8.19538 12.202 7.25811 14.5452C6.0709 17.5137 5.46875 20.3555 5.46875 22.9918C5.46875 29.6131 10.8558 35.0001 17.4773 35.0001C24.0985 35.0001 29.4856 29.6131 29.4856 22.9918C29.4859 18.7533 27.9579 14.0757 24.9448 9.08898ZM24.3194 22.7251C24.3194 23.2914 23.8604 23.7505 23.294 23.7505C22.7279 23.7505 22.2686 23.2914 22.2686 22.7251V20.8075L17.163 25.9134C16.9705 26.1057 16.7099 26.2135 16.4378 26.2135C16.1659 26.2135 15.905 26.1057 15.7128 25.9134L13.3314 23.5318L11.7266 25.1366C11.326 25.5372 10.6769 25.5372 10.2763 25.1366C9.87579 24.7361 9.87579 24.0869 10.2763 23.6864L12.6064 21.3566C13.007 20.9563 13.6561 20.9563 14.0567 21.3568L16.4378 23.7382L20.8186 19.3573H18.9008C18.3345 19.3573 17.8754 18.8983 17.8754 18.3319C17.8754 17.7655 18.3345 17.3065 18.9008 17.3065H23.2943C23.8604 17.3065 24.3196 17.7658 24.3196 18.3319V22.7251H24.3194Z" fill="#606365"/>
</g>
<defs>
<clipPath id="clip0">
<rect width="35" height="35" fill="white"/>
</clipPath>
</defs>
</svg>
